<?xml version="1.0" encoding="utf-8"?>
<!-- Generator: Adobe Illustrator 28.0.0, SVG Export Plug-In . SVG Version: 6.00 Build 0)  -->
<svg version="1.1" id="Layer_1" xmlns="http://www.w3.org/2000/svg" xmlns:xlink="http://www.w3.org/1999/xlink" x="0px" y="0px"
	 viewBox="0 0 256 256" style="enable-background:new 0 0 256 256;" xml:space="preserve">
<style type="text/css">
	.st0{fill:#FFFFFF;}
	.st1{fill:#009444;stroke:#272221;stroke-width:0.2264;}
</style>
<circle class="st0" cx="128" cy="128" r="128"/>
<g>
	<path class="st1" d="M22.8,176.7v-17.1H98c4.7,0,8.3-1.2,10.8-3.5c2.5-2.3,3.8-5.4,3.8-9.3c0-4.3-1.3-7.4-3.8-9.5
		c-2.5-2.1-6.2-3.1-10.8-3.1H52c-4.7,0-9-0.7-12.8-2.1c-3.8-1.4-7-3.3-9.6-5.7c-2.6-2.5-4.6-5.4-6.1-8.8c-1.5-3.4-2.2-7.1-2.2-11.2
		c0-3.9,0.6-7.6,2-11s3.3-6.3,5.9-8.6c2.6-2.5,5.8-4.4,9.7-5.7c3.8-1.4,8.3-2.1,13.3-2.1h72V96H52.3c-4.2,0-7.3,1.1-9.4,3.2
		s-3.3,5.1-3.3,8.8s1.1,6.6,3.4,8.7c2.3,2.1,5.4,3.1,9.2,3.1h45.9c10.3,0,18.1,2.4,23.2,7c5.3,4.6,7.9,11.7,7.9,21.3
		c0,4.1-0.6,7.9-1.9,11.4c-1.3,3.5-3.2,6.5-5.7,9.1s-5.8,4.5-9.7,6c-3.9,1.5-8.4,2.2-13.7,2.2L22.8,176.7L22.8,176.7z"/>
	<polygon class="st1" points="217.2,79 217.2,119.4 154,119.4 154,79 136.4,79 136.4,177 154,177 154,134.6 217.2,134.6 217.2,177 
		234.7,177 234.7,79 	"/>
</g>
</svg>
