<?xml version="1.0" encoding="utf-8"?>
<!-- Generator: Adobe Illustrator 28.0.0, SVG Export Plug-In . SVG Version: 6.00 Build 0)  -->
<svg version="1.1" id="Layer_1" xmlns="http://www.w3.org/2000/svg" xmlns:xlink="http://www.w3.org/1999/xlink" x="0px" y="0px"
	 viewBox="0 0 250 250" style="enable-background:new 0 0 250 250;" xml:space="preserve">
<style type="text/css">
	.st0{fill:#FFFFFF;}
</style>
<g>
	<path class="st0" d="M124.8,209c-25.7,0-51.5,0-77.2,0c-4.6,0-6.1-1.5-6.1-6.2c0-51.6,0-103.2,0-154.8c0-4.5,1.5-6,6-6
		c51.7,0,103.4,0,155,0c4.4,0,6,1.6,6,6c0,51.6,0,103.2,0,154.8c0,4.6-1.5,6.1-6.1,6.1C176.5,209,150.7,209,124.8,209z M199.1,199.7
		c0-49.6,0-98.9,0-148.3c-49.5,0-98.8,0-148.2,0c0,49.5,0,98.9,0,148.3C100.4,199.7,149.7,199.7,199.1,199.7z"/>
	<path class="st0" d="M83.2,149.3c-1.5-1.2-3-1.9-3.9-3.1c-1.1-1.4-0.9-3.2,0.1-4.7c0.4-0.6,0.9-1.1,1.4-1.6
		c11.8-11.8,23.6-23.7,35.5-35.5c0.8-0.8,1.8-1.6,2.8-1.9c1.9-0.7,4,0.2,5.1,1.9c1.1,1.8,1,3.6-0.2,5.3c-0.4,0.5-0.9,1-1.3,1.4
		c-11.8,11.8-23.5,23.6-35.3,35.3C86.3,147.5,84.9,148.2,83.2,149.3z"/>
	<path class="st0" d="M166.8,101.7c1.5,1.1,2.9,1.8,3.8,3c1.1,1.4,1,3.1,0,4.7c-0.5,0.7-1.1,1.4-1.7,2c-11.7,11.7-23.3,23.3-35,35
		c-0.8,0.8-1.6,1.5-2.5,2c-1.8,0.9-4,0.3-5.3-1.3c-1.3-1.6-1.5-3.7-0.3-5.4c0.4-0.6,0.9-1.1,1.4-1.6c11.8-11.8,23.6-23.7,35.5-35.4
		C163.8,103.4,165.2,102.8,166.8,101.7z"/>
	<path class="st0" d="M189.9,185.7c0,2.6-1.8,4.6-4.4,4.6c-2.6,0.1-4.8-1.9-4.8-4.5c0-2.6,2.1-4.7,4.7-4.7
		C187.8,181.2,189.8,183.2,189.9,185.7z"/>
	<path class="st0" d="M64.8,60.6c2.5,0,4.5,2,4.6,4.5c0,2.6-2.1,4.7-4.7,4.7c-2.6,0-4.6-2.2-4.5-4.8C60.2,62.5,62.2,60.6,64.8,60.6z
		"/>
	<path class="st0" d="M185.3,60.6c2.6,0,4.5,1.9,4.5,4.5c0,2.6-2,4.7-4.6,4.7c-2.5,0-4.7-2.2-4.6-4.8
		C180.8,62.6,182.8,60.6,185.3,60.6z"/>
	<path class="st0" d="M64.8,190.4c-2.6,0-4.6-1.8-4.7-4.4c-0.1-2.6,1.9-4.8,4.5-4.8c2.6-0.1,4.7,2.1,4.7,4.6
		C69.3,188.3,67.3,190.3,64.8,190.4z"/>
</g>
</svg>
