<svg xmlns="http://www.w3.org/2000/svg" viewBox="0 0 250 77.7"><style>.st0{fill:#fff}</style><g><animateTransform additive="sum" attributeName="transform" dur="2s" repeatCount="indefinite" type="scale" values="1;1.02;1"/><path d="M120.8 62.1c-.6-.2-1.2-.4-1.7-.7-1.2-.8-1.9-1.9-1.9-3.4v-5.2c0-2-.7-3.6-2.1-4.9-2.9-2.9-4.3-6.4-4.3-10.4.1-6.5 5-12.3 11.4-13.5 7.6-1.4 14.8 3.3 16.4 10.9 1 4.9-.3 9.3-3.9 12.9-1.1 1.1-1.9 2.3-2.1 3.9-.1.5 0 1 0 1.5v4.5c0 2.3-1.2 3.8-3.4 4.3 0 0-.1 0-.1.1zm-.7-10.2h9.9c0-.3.1-.7.1-1 .4-2 1.4-3.6 2.8-5 2.9-2.9 4-6.4 3.2-10.3-1.2-6.1-6.9-9.9-13.1-8.9-5.2.8-9.2 5.5-9.4 10.8-.1 3.4 1.1 6.2 3.5 8.6 1 1 1.8 2.1 2.3 3.4.3.7.5 1.5.7 2.4m-.1 2.7v3.5c0 .7.6 1.2 1.3 1.2h7.3c.7 0 1.3-.5 1.3-1.2.1-1.2 0-2.3 0-3.5z" class="st0"/><g><animate attributeName="opacity" dur="1.4s" repeatCount="indefinite" values="0.35;1;0.35"/><path d="M110.4 21.7c.2.1.5.2.8.4.6.6 1.3 1.2 1.9 1.9.6.6.6 1.4 0 2-.5.5-1.4.5-2 0-.7-.6-1.3-1.3-1.9-1.9-.4-.4-.5-1-.2-1.5.2-.7.7-.9 1.4-.9M138 26.3c-.7 0-1.1-.3-1.3-.8s-.2-1 .1-1.4c.7-.8 1.4-1.5 2.2-2.2.5-.5 1.3-.4 1.8.1s.6 1.3.1 1.8c-.7.8-1.5 1.5-2.2 2.2-.3.2-.6.3-.7.3M123.6 18.3v-1.4c0-.8.6-1.4 1.3-1.4s1.4.6 1.4 1.3v2.8c0 .8-.6 1.3-1.4 1.3-.7 0-1.3-.6-1.3-1.4zM105.5 39.2h-1.4c-.8 0-1.4-.6-1.4-1.3 0-.8.6-1.4 1.4-1.4h2.7c.8 0 1.4.6 1.4 1.4s-.6 1.3-1.4 1.4c-.5-.1-.9-.1-1.3-.1M144.6 36.5h1.3c.8 0 1.4.6 1.4 1.3s-.6 1.4-1.3 1.4h-2.8c-.8 0-1.3-.6-1.3-1.4 0-.7.6-1.3 1.4-1.3z" class="st0"/></g><path fill="none" stroke="#fff" stroke-dasharray="180" stroke-dashoffset="180" stroke-linecap="round" stroke-linejoin="round" stroke-width="1.5" d="M121.8 40c.1-.1.2-.3.3-.4l6.7-6.7c.8-.8 2.1-.5 2.4.6.1.6-.1 1-.5 1.4l-3.8 3.8-4.1 4.1c-.8.8-1.5.8-2.2 0l-2.3-2.3c-.6-.6-.7-1.5-.1-2.1s1.4-.5 2 .1l1.4 1.4q0 0 0 0c.2 0 .2.1.2.1"><animate attributeName="stroke-dashoffset" dur="3s" from="0" repeatCount="indefinite" to="190"/></path></g></svg>